<svg xmlns="http://www.w3.org/2000/svg" version="1.0" viewBox="0 0 810 810" fill="#FFD1D7">
  <path d="M453 407c11-45 47-148 139-173h1c69 66 53 174 42 221-15-25-44-42-84-52-17-5-33-7-47-7-20 0-37 4-51 11Zm-98-65-19-4c35-75 124-119 219-110-39 20-72 55-96 105-12 25-20 49-24 66-17-27-45-48-80-57Zm415 107-16-5c-35-9-71-4-99 13 4-18 9-43 10-71 2-56-11-103-36-140 90 37 147 118 141 203Zm-142 37a10 10 0 0 0 9 7c3 0 6-1 8-3 24-27 65-38 104-28l25 10h9c3-2 5-4 5-7 16-108-62-213-181-247l5-20a10 10 0 1 0-19-5l-5 20c-121-26-238 29-275 131-1 3-1 6 1 9 2 2 5 4 8 4 10 0 19 1 28 4 39 10 70 38 79 72a10 10 0 0 0 16 4c24-25 61-24 92-18l-54 211h-7c-27 0-52-12-69-34-3-5-12-5-15 0a86 86 0 0 1-69 34c-26 0-51-12-68-34-4-5-12-5-16 0a86 86 0 0 1-68 34c-27 0-52-12-68-34-4-5-12-5-16 0a86 86 0 0 1-68 34 10 10 0 1 0 0 20c29 0 56-12 76-33a104 104 0 0 0 152 0 104 104 0 0 0 153 0c20 21 47 33 76 33h2l-20 79c-264-11-440 46-442 47-5 1-8 7-7 12a10 10 0 0 0 13 6c3-1 327-105 756 0 5 2 11-2 12-7s-2-10-7-12c-110-27-212-40-305-45l21-83c20-4 38-15 53-30a104 104 0 0 0 152 0c20 21 47 33 76 33a10 10 0 0 0 0-20c-26 0-51-12-68-34-4-5-12-5-16 0a86 86 0 0 1-68 34c-27 0-52-12-68-34-2-3-5-4-8-4s-6 1-8 4a87 87 0 0 1-39 29l51-201c30 9 63 27 72 62M166 218a48 48 0 1 1 0-96 48 48 0 0 1 0 96Zm67-48c0-37-30-67-67-67a67 67 0 0 0 0 134c37 0 67-30 67-67"/>
  <path d="M166 75c5 0 10-5 10-10V23a10 10 0 1 0-20 0v42c0 5 5 10 10 10"/>
  <path d="M105 84a10 10 0 0 0 14 3c4-2 6-8 3-13l-21-36a10 10 0 1 0-17 10l21 36m-71 21 36 21 5 1c4 0 7-2 9-5 3-4 1-10-4-13L44 88c-4-3-10-1-13 4-3 4-1 10 3 13m-14 75h41a10 10 0 0 0 0-20H20a10 10 0 0 0 0 20m64 37c-3-4-9-6-14-3l-36 21c-4 2-6 8-3 13a10 10 0 0 0 13 4l36-21c5-3 7-9 4-14m4 88 5 2c3 0 7-2 8-5l21-36c3-5 1-11-3-14-5-2-11-1-14 4l-21 36c-2 5-1 11 4 13m68-30v42a10 10 0 1 0 20 0v-42a10 10 0 1 0-20 0m75 27c2 3 5 5 8 5l5-2c5-2 6-8 4-13l-21-36c-3-5-9-6-14-4-4 3-6 9-3 14l21 36m57-50 5 1c3 0 6-2 8-5 3-5 1-11-3-13l-37-21c-4-3-10-1-13 3-3 5-1 11 4 14l36 21m-27-82c0 5 4 10 10 10h41a10 10 0 1 0 0-20h-41c-6 0-10 5-10 10m-13-48a10 10 0 0 0 13 4l37-21c4-3 6-9 3-13-3-5-9-7-13-4l-36 21c-5 3-7 9-4 13m-35-35 5 2c4 0 7-2 9-5l21-36c2-5 1-11-4-14-5-2-11-1-13 4l-21 36c-3 5-1 11 3 13"/>
</svg>
