<svg xmlns="http://www.w3.org/2000/svg" version="1.0" viewBox="0 0 810 810">
  <path fill="#FFD1D7" d="m29 606 144-88c-6-3-10-7-12-14-3-8-1-16 6-22l171-154a11 11 0 1 1 15 17l-50 46c42 5 85 5 127 1l152-16c6-14 11-29 15-44-42-14-78-40-105-75l-4-6c-24 5-47 16-66 33l-31 28a11 11 0 1 1-16-17l32-28c21-19 47-32 75-38 2-33 16-65 40-89l2-1a131 131 0 0 1 198 14c26 7 46 19 63 35a16 16 0 0 1-10 27l-54 4-10 13c-6 7-9 16-9 25v120c0 38-10 76-28 110a11 11 0 1 1-20-11c16-30 25-65 25-99v-28l-52-10-9-1a256 256 0 0 1-278 199l-21-3 39 22a220 220 0 0 0 269-42 11 11 0 1 1 17 15 229 229 0 0 1-153 77l33 53h27a11 11 0 0 1 0 23h-33c-4 0-8-2-10-6l-7-11-9 12c-2 3-5 5-9 5h-7l9 14h27a11 11 0 1 1 0 22h-34c-4 0-7-2-9-5l-7-12-9 12c-2 3-6 5-9 5h-26a11 11 0 0 1 0-22h20l11-16-52-82c-18-6-35-13-51-22l-43-25-57 22h-4a11 11 0 0 1-4-22l39-14-15-9-53-6-148 91c16-2 32-6 47-12l84-32a11 11 0 1 1 8 22l-84 32c-25 9-52 14-78 14-8 0-15-5-17-12-2-8 1-15 8-19Zm616-480c-37-10-78 1-105 29l-1 1c-22 21-34 49-34 79l5 8c13 16 27 30 44 42l-2-17a118 118 0 0 1 115-129h8c-9-5-19-10-30-13Zm82 52v17l29-2c-9-6-18-11-29-15Zm-96 139 48 8v-68c0-14 5-28 14-40l11-13v-38l-4-4h-32c-27 1-52 12-70 32a94 94 0 0 0-23 72l3 33c16 9 34 15 53 18ZM462 659h15l11-15-23-36h-2c-12 0-23-1-35-3Zm-29-245a605 605 0 0 1-152-3l-49 43c87 10 175 0 258-27l79-26 1-1Zm-91 100a233 233 0 0 0 205-81l-50 16a633 633 0 0 1-287 25l-25 23Zm0 0"/>
  <path fill="#FFD1D7" d="M664 182c6 0 11 5 11 11v9a11 11 0 1 1-23 0v-9c0-6 5-11 12-11Zm0 0"/>
</svg>
