<svg xmlns="http://www.w3.org/2000/svg" version="1.0" viewBox="0 0 810 810" fill="#FFD1D7">
  <path d="M43 562c69-29 137-63 203-100l20-114-7-9a32 32 0 0 1 6-46c10-9 25-10 37-3 29 17 56 36 81 58 71-75 167-122 271-132 15-47 33-94 56-138 3-7 12-9 19-6 7 4 9 12 6 19-21 40-38 82-51 124l21 5c16-36 38-68 67-94 6-5 15-5 20 1 5 5 5 14-1 20-25 23-46 52-60 83a115 115 0 0 1 18 186c2 7 6 14 11 20a14 14 0 0 1-22 18l-13-21-5 2 12 14a14 14 0 1 1-19 21l-20-24c-31 11-62 24-92 37l5 1a31 31 0 0 1 17 18c26 67 44 137 54 209 0 1 1 2 3 2h56a14 14 0 0 1 0 28h-56c-16 0-29-11-31-26-10-69-27-136-51-201l-5-4-77 31a52 52 0 0 1-31 55 52 52 0 0 1-67-23l-58 23c-3 38-4 75-3 113 0 8-3 16-8 22-6 7-14 10-23 10h-40a14 14 0 0 1 0-28h40c2 0 3-1 3-3-1-34 0-69 2-103-26 9-53 16-79 22l-10 84c-1 16-15 28-31 28h-55a14 14 0 0 1 0-28h55c2 0 3-1 3-2l9-76c-53 11-107 17-161 18h-1a47 47 0 0 1-48-47c0-19 12-36 30-44Zm234-117h1c13-8 27-18 39-28l-28-38-12 66Zm126-77c39 38 72 83 97 132 42-22 86-42 130-60-35-52-60-112-72-174-58 21-111 56-155 102Zm357-44c-4-48-46-85-94-81-28 2-55 7-81 14 11 62 36 121 71 173l46-18c37-13 60-49 58-88ZM474 570c6-3 10-8 13-14 2-6 2-12-1-18a473 473 0 0 0-201-224l-3 1c-2 1-2 5-1 7 59 75 113 155 162 238 6 10 20 14 31 10Zm-86-15-21-3c-2 0-3 1-4 3l-1 10 26-10Zm-55 21 2-24c2-17 18-29 36-27l19 2-57-87c-13 11-27 21-41 29l-20 11-17 119c27-6 53-14 78-23ZM48 620c3 3 7 5 14 5 55-1 110-8 164-19l15-108c-61 33-124 63-187 90a19 19 0 0 0-6 32Zm0 0"/>
  <path d="M671 374a54 54 0 1 1 1-108 54 54 0 0 1-1 108Zm0-80a26 26 0 1 0 1 52 26 26 0 0 0-1-52Zm0 0"/>
</svg>
