<svg xmlns="http://www.w3.org/2000/svg" version="1.0" viewBox="0 0 810 810" fill="#FFD1D7">
  <path d="m571 721-6 4c11-23 18-50 15-83-2-38-16-62-30-87-14-24-30-52-39-101a20 20 0 0 0-29-13c-29 15-51 48-63 80-51-84-45-170-43-188a20 20 0 0 0-29-20c-32 17-86 95-102 192-11 63-8 154 57 245-37-14-70-43-95-83-54-86-58-198-9-299 72-149 146-249 187-297v14c1 80 3 163 49 227a20 20 0 0 0 35-12c-1-47 3-87 21-118 10 82 47 137 83 190 39 58 76 113 76 202 0 61-26 110-78 147Zm35-371c-41-61-80-118-80-217a20 20 0 0 0-32-15c-35 27-51 62-59 100-9-42-10-88-11-134l-2-64a20 20 0 0 0-33-13c-5 5-117 117-226 344-28 58-41 121-38 183 4 56 20 109 49 154 43 69 109 110 177 110a20 20 0 0 0 14-33c-87-92-92-189-82-254 10-57 33-103 53-131 4 63 26 139 80 203a20 20 0 0 0 34-14c-2-20 11-53 30-76 10 37 24 61 36 82 13 22 23 40 25 70 6 76-56 115-58 117a20 20 0 0 0 14 36c2-1 48-12 95-44 63-45 96-107 96-180 0-101-42-163-82-224"/>
</svg>
