<svg xmlns="http://www.w3.org/2000/svg" xmlns:xlink="http://www.w3.org/1999/xlink" version="1.0" viewBox="0 0 810 810" fill="#FFD1D7">
  <path d="M750.1 174.7H46.8V98h716.1v76.7Zm-12.8 537h-89.5V494.5c0-134-109-243-243-243s-243 109-243 243v217.4H72.5V200.3h665ZM481.6 635a51 51 0 0 0-38.4 17.7A50.9 50.9 0 0 0 405 635a51 51 0 0 0-38.4 17.7 50.9 50.9 0 0 0-82.4 59h-45.5V494.5c0-91.7 74.6-166.3 166.3-166.3 91.6 0 166.2 74.6 166.2 166.3v217.4h-45.5a50.7 50.7 0 0 0-44-76.8ZM456 686.2a25.6 25.6 0 0 1 51.2 0 25.6 25.6 0 0 1-51.2 0Zm-76.7 0a25.6 25.6 0 0 1 51.1 0 25.6 25.6 0 0 1-51.1 0Zm-76.7 0a25.6 25.6 0 0 1 51.1 0 25.6 25.6 0 0 1-51.1 0Zm319.6 25.6h-25.5V494.4a192 192 0 0 0-191.8-191.8A192 192 0 0 0 213 494.4v217.4h-25.5V494.4A217.6 217.6 0 0 1 404.9 277a217.6 217.6 0 0 1 217.3 217.4ZM763 762.9H46.8v-25.6h716.1Zm0-716.1v25.6H46.8V46.8Zm12.8-25.6H34c-7 0-12.8 5.8-12.8 12.8v153.5c0 7 5.8 12.8 12.8 12.8h12.8v511.5H34c-7 0-12.8 5.7-12.8 12.7v51.2c0 7 5.8 12.8 12.8 12.8h741.7c7 0 12.8-5.8 12.8-12.8v-51.2c0-7-5.8-12.7-12.8-12.7h-12.8V200.3h12.8c7 0 12.8-5.8 12.8-12.8V34c0-7-5.8-12.8-12.8-12.8"/>
  <path d="M440.8 576.2a68.4 68.4 0 0 0 2.4-17.9c0-24-24.6-65.8-27.4-70.5-4.6-7.7-17.3-7.7-22 0-2.7 4.7-27.3 46.5-27.3 70.5 0 6.3 1 12.3 2.4 17.9-18.4-9.6-28-28.3-28-56.3 0-36.5 40.4-85.7 64-109.9 23.5 24.2 63.9 73.3 63.9 110 0 27.9-9.6 46.6-28 56.2ZM392 558.3c0-8.2 6-23.3 12.8-37 6.8 14 12.7 29 12.7 37 0 15.6-7.5 25.6-12.7 25.6-5.2 0-12.8-10-12.8-25.6Zm21.4-175.6a12.7 12.7 0 0 0-17.3 0c-3.4 3-80.9 75.9-80.9 137.2 0 57 32.7 89.6 89.6 89.6 56.9 0 89.5-32.7 89.5-89.6 0-61.3-77.5-134.1-80.9-137.2"/>
</svg>
