<svg xmlns="http://www.w3.org/2000/svg" version="1.0" viewBox="0 0 810 810" fill="#FFD1D7">
  <path d="M324 379c4 3 9 3 12 0 3-4 3-9 0-12l-47-47c-3-3-9-3-12 0-3 4-3 9 0 12l47 47"/>
  <path d="M494 487c10-1 20-3 29-7a449 449 0 0 0 265-305A114 114 0 0 0 662 29c-5 1-8 6-7 10 0 5 5 8 9 7 17-2 33-1 49 5 4 67-11 133-44 192l-39-40a9 9 0 0 0-12 13l42 42c-24 39-56 74-94 101l-44-44c-4-4-9-4-12 0-4 3-4 8 0 12l42 42a354 354 0 0 1-337 26c-4-2-9 0-11 5-2 4 0 9 4 11 27 12 56 21 85 26-28 43-69 76-117 95A223 223 0 0 0 16 751c0 28 23 51 51 51 101 3 191-63 220-160 33-87 114-148 207-155"/>
  <path d="M450 375c3 4 9 4 12 0 3-3 3-8 0-12l-47-47c-4-3-9-3-12 1-3 3-3 8 0 11l47 47m-72-95-47-47c-3-4-9-4-12 0-3 3-3 9 0 12l47 47c4 3 9 3 12 0 3-4 3-9 0-12m85-26-47-48c-4-3-9-3-13 0-3 4-3 9 0 13l48 47c3 3 8 3 12 0 3-4 3-9 0-12m127 22-47-47c-3-3-9-3-12 1-3 3-3 8 0 11l47 47c4 4 9 4 12 0 3-3 3-8 0-12M410 119l47 47a9 9 0 0 0 12-12l-47-47c-4-3-9-3-12 0-3 4-3 9 0 12m177-62-47-47c-3-3-9-3-12 0-4 3-4 9 0 12l47 47c3 4 9 4 12 0 3-3 3-8 0-12m-76 52 47 47c3 4 9 3 12 0s3-9 0-12l-47-47c-4-3-9-3-12 0-3 4-3 9 0 12m101-2 47 47c3 4 9 3 12 0s3-9 0-12l-47-47c-4-3-9-3-12 0-3 4-3 9 0 12"/>
</svg>
