<svg xmlns="http://www.w3.org/2000/svg" version="1.0" viewBox="0 0 810 810" fill="#FFD1D7">
  <path d="m132.4 260-18.8.2.1 18.8h18.7Zm.1 19v8Zm0 16h-18.9a16 16 0 0 1-16-16v-19a16 16 0 0 1 16-15.9h19a16 16 0 0 1 16 16V279a16 16 0 0 1-16 16m70.3-35-18.8.2.1 18.8h18.7Zm.1 19v8Zm0 16h-18.9a16 16 0 0 1-16-16v-19a16 16 0 0 1 16-15.9h19a16 16 0 0 1 15.9 16V279a16 16 0 0 1-16 16m70.4-35-18.8.2V279h18.8Zm0 19v8Zm0 16h-18.8a16 16 0 0 1-16-16v-19a16 16 0 0 1 16-15.9h18.9a16 16 0 0 1 16 16V279a16 16 0 0 1-16 16m70.4-35-18.9.2.2 18.8h18.7Zm0 19v8Zm0 16H325a16 16 0 0 1-16-16v-19a16 16 0 0 1 16-15.9h19a16 16 0 0 1 16 16V279a16 16 0 0 1-16 16m70.3-35-18.8.2.1 18.8h18.7Zm.1 19v8Zm0 16h-18.9a16 16 0 0 1-16-16v-19a16 16 0 0 1 16-15.9h19a16 16 0 0 1 15.9 16V279a16 16 0 0 1-16 16m70.4-35-18.8.2.1 18.8h18.7Zm0 19v8Zm0 16H466a16 16 0 0 1-16-16v-19a16 16 0 0 1 16-15.9h18.9a16 16 0 0 1 16 16V279a16 16 0 0 1-16 16m70.4-35-18.8.2V279h18.8Zm0 19v8Zm0 16h-18.8a16 16 0 0 1-16-16v-19a16 16 0 0 1 16-15.9h18.9a16 16 0 0 1 16 16V279a16 16 0 0 1-16 16m-282.1 36.6h-18.8v18.9l18.8-.1Zm0 18.8v8Zm0 16h-18.8a16 16 0 0 1-16-15.9v-19a16 16 0 0 1 16-15.9h18.9a16 16 0 0 1 16 16v18.9a16 16 0 0 1-16 16m70.3-34.9H325l.1 18.9 18.7-.1Zm.1 18.8v8Zm0 16H325a16 16 0 0 1-16-15.9v-19a16 16 0 0 1 16-15.9h19a16 16 0 0 1 16 16v18.9a16 16 0 0 1-16 16m70.2-34.9h-18.8l.1 18.9 18.7-.1Zm.1 18.8v8Zm0 16h-18.9a16 16 0 0 1-16-15.9v-19a16 16 0 0 1 16-15.9h19a16 16 0 0 1 15.9 16v18.9a16 16 0 0 1-16 16m70.4-34.9h-18.8v18.9l18.8-.1Zm0 18.8v8Zm0 16H466a16 16 0 0 1-16-15.9v-19a16 16 0 0 1 16-15.9h18.9a16 16 0 0 1 16 16v18.9a16 16 0 0 1-16 16m-141 37.2-18.9.1.2 18.8h18.7Zm0 18.9v8Zm0 16H325a16 16 0 0 1-16-16v-18.9a16 16 0 0 1 16-16h19a16 16 0 0 1 16 16v19a16 16 0 0 1-16 16m70.3-35-18.8.1.1 18.8h18.7Zm.1 18.9v8Zm0 16h-18.9a16 16 0 0 1-16-16v-18.9a16 16 0 0 1 16-16h19a16 16 0 0 1 15.9 16v19a16 16 0 0 1-16 16m70.4-35-18.8.1.1 18.8h18.7Zm0 18.9v8Zm0 16H466a16 16 0 0 1-16-16v-18.9a16 16 0 0 1 16-16h18.9a16 16 0 0 1 16 16v19a16 16 0 0 1-16 16m70.3-107.1h-18.9l.1 18.9 18.8-.1Zm0 18.8v8Zm0 16h-18.9a16 16 0 0 1-16-15.9v-19a16 16 0 0 1 16-15.9h19a16 16 0 0 1 16 16v18.9a16 16 0 0 1-16 16M625.7 260l-18.8.2.1 18.8h18.7Zm.1 19v8Zm0 16H607a16 16 0 0 1-16-16v-19a16 16 0 0 1 16-15.9h19a16 16 0 0 1 16 16V279a16 16 0 0 1-16 16m70.2-35-18.8.2V279h18.8Zm.1 19v8Zm0 16h-18.9a16 16 0 0 1-16-16v-19a16 16 0 0 1 16-15.9h19a16 16 0 0 1 15.9 16V279a16 16 0 0 1-16 16m-33.6 162.9a8 8 0 0 1-8-8V398a8 8 0 0 1 8-8H683a28.3 28.3 0 0 1 28.3 28.3 8 8 0 1 1-16.1 0c0-6.7-5.5-12.2-12.2-12.2h-12.3v43.7a8 8 0 0 1-8 8"/>
  <path d="M759.4 633h-87a8 8 0 0 1 0-16H753c1-4 2.4-9.4 4.4-15.5a395 395 0 0 0 18.8-110.9c0-4.4 4-8 8.2-7.8a8 8 0 0 1 7.8 8.3c-1 39.4-7.6 78.2-19.5 115.3a197 197 0 0 0-5.4 20.2 8 8 0 0 1-7.9 6.5"/>
  <path d="M629.3 633a8 8 0 0 1-7.9-6.5c0-.4-6.5-36-29.6-61.7a166.4 166.4 0 0 1-18.1-25 142.6 142.6 0 0 1-20-73.3 32 32 0 0 1 60.4-14.9V344.2a28.3 28.3 0 0 1 56.6 0V398a8 8 0 1 1-16 0v-53.8a12.3 12.3 0 1 0-24.5 0v150a8 8 0 0 1-6.6 8 8 8 0 0 1-9-5l-14-36.4a16 16 0 0 0-31 5.7c.1 23.2 6.3 45.7 17.9 65 5 8.6 10.6 16.2 16.3 22.6 26.1 29.2 33.2 68 33.5 69.6a8 8 0 0 1-8 9.4m114.5-142.5a8 8 0 0 1-8-8v-49.2c0-6.7-5.6-12.2-12.3-12.2h-12.2V465a8 8 0 0 1-16.1 0v-51.8a8 8 0 0 1 8-8h20.3a28.3 28.3 0 0 1 28.3 28.2v49.2a8 8 0 0 1-8 8"/>
  <path d="M784.3 498.9a8 8 0 0 1-8-8v-31.5c0-6.8-5.5-12.3-12.3-12.3h-20.2a8 8 0 0 1 0-16H764a28.3 28.3 0 0 1 28.3 28.3v31.5a8 8 0 0 1-8 8"/>
  <path d="M621.4 706.7h141.2v-46.4H621.4Zm149.2 16H613.4a8 8 0 0 1-8-8v-62.4a8 8 0 0 1 8-8h157.2a8 8 0 0 1 8 8v62.4a8 8 0 0 1-8 8"/>
  <path d="M735.7 669.6a14 14 0 1 0 0 27.8 14 14 0 0 0 0-27.8m16.1-288.7h-16v-158H74.1v158h-16v-166a8 8 0 0 1 8-8h677.6a8 8 0 0 1 8 8v166M570 603H238.7a8 8 0 0 1 0-16H570a8 8 0 1 1 0 16M147.2 457.9a8 8 0 0 1-8-8V406H127c-6.8 0-12.3 5.5-12.3 12.2a8 8 0 1 1-16 0A28.3 28.3 0 0 1 127 390h20.2a8 8 0 0 1 8 8v51.8a8 8 0 0 1-8 8"/>
  <path d="M137.6 633h-87a8 8 0 0 1-8-6.4s-1.7-9-5.3-20.2a411 411 0 0 1-19.6-115.3 8 8 0 0 1 7.9-8.3 8 8 0 0 1 8.2 7.8c1 38 7.3 75.3 18.7 110.9 2 6.1 3.5 11.6 4.5 15.5h80.6a8 8 0 0 1 0 16"/>
  <path d="M180.6 633h-1.4a8 8 0 0 1-6.5-9.3 156 156 0 0 1 33.4-69.6c5.8-6.4 11.3-14 16.4-22.5a126.5 126.5 0 0 0 17.7-65 16 16 0 0 0-31-5.8l-13.9 36.4a8 8 0 0 1-15.5-2.9v-150a12.3 12.3 0 1 0-24.5 0V398a8 8 0 1 1-16 0v-53.8a28.3 28.3 0 0 1 56.5 0v107.4a32 32 0 0 1 60.5 14.9c0 26.1-7 51.4-20 73.4a162.2 162.2 0 0 1-18.2 25c-23.1 25.8-29.5 61.2-29.6 61.5a8 8 0 0 1-8 6.7M66.2 490.6a8 8 0 0 1-8-8v-49.2a28.3 28.3 0 0 1 28.2-28.2h20.3a8 8 0 0 1 8 8V465a8 8 0 0 1-16 0v-43.8H86.4c-6.7 0-12.2 5.5-12.2 12.2v49.2a8 8 0 0 1-8 8"/>
  <path d="M25.6 498.9a8 8 0 0 1-8-8v-31.5A28.3 28.3 0 0 1 45.9 431h20.3a8 8 0 0 1 0 16H45.9c-6.8 0-12.2 5.5-12.2 12.3v31.5a8 8 0 0 1-8 8"/>
  <path d="M47.3 706.7h141.2v-46.4H47.3Zm149.2 16H39.3a8 8 0 0 1-8-8v-62.4a8 8 0 0 1 8-8h157.2a8 8 0 0 1 8 8v62.4a8 8 0 0 1-8 8"/>
  <path d="M74.3 669.6a14 14 0 1 0 0 27.8 14 14 0 0 0 0-27.8"/>
  <path d="M405 223a8 8 0 0 1-8-8v-20c0-6.5-5.3-11.8-11.9-11.8H276.7a27.9 27.9 0 0 1 0-55.7H533a11.8 11.8 0 0 0 0-23.6H404.8a8 8 0 0 1 0-16H533a27.9 27.9 0 0 1 0 55.7H276.7a11.8 11.8 0 0 0 0 23.5H385a28 28 0 0 1 28 28v19.7a8 8 0 0 1-8.1 8"/>
</svg>
