<svg xmlns="http://www.w3.org/2000/svg" version="1.0" viewBox="0 0 810 810">
  <defs>
    <clipPath id="a">
      <path d="M21 21h756v756H21Zm0 0"/>
    </clipPath>
  </defs>
  <g clip-path="url(#a)">
    <path fill="#FFD1D7" d="m727 697-30 30 53 23Zm-52-118-96 96 94 42 44-44ZM164 59a47 47 0 0 0-66 0L59 98a47 47 0 0 0 0 66l66 66 104-105Zm76 236-25 25 342 342 26-25Zm37-37-19 19 342 343 19-20Zm17-17 342 342 26-25-342-343Zm-28-79-19-20-105 105 19 19Zm-87 121 19 20 104-105-19-19ZM42 181a71 71 0 0 1 0-100l39-39a71 71 0 0 1 100 0l508 509 88 199v27H289a37 37 0 0 1 0-73h86a12 12 0 0 0 0-25H94v-24h281a37 37 0 0 1 0 73h-86a12 12 0 0 0 0 24h405l-144-62L42 181"/>
  </g>
</svg>
