<svg xmlns="http://www.w3.org/2000/svg" version="1.0" viewBox="0 0 810 810" fill="#FFD1D7">
  <path d="M408.35 452.39c-45.34 0-79.46-66.57-79.46-109.71 0-43.82 35.65-79.5 79.46-79.5 43.8 0 79.45 35.68 79.45 79.5 0 43.14-34.11 109.7-79.45 109.7Zm0-165.21a55.56 55.56 0 0 0-55.48 55.5c0 32.24 26.88 85.72 55.48 85.72 28.6 0 55.47-53.48 55.47-85.72a55.53 55.53 0 0 0-55.47-55.5Zm0 0"/>
  <path d="M507.44 802.17H307.2a12 12 0 0 1-12-11.99V574.3c0-61.84 50.3-112.14 112.1-112.14 61.83 0 112.11 50.31 112.11 112.14v215.86a11.98 11.98 0 0 1-11.97 12.01Zm-188.25-23.99h176.26V574.3c0-48.62-39.54-88.15-88.13-88.15-48.6 0-88.12 39.55-88.12 88.15v203.88Zm0 0"/>
  <path d="M592.62 503.64c-39.27 0-68.81-57.2-68.81-94.29 0-37.95 30.87-68.83 68.8-68.83 37.94 0 68.82 30.88 68.82 68.83 0 37.1-29.55 94.3-68.81 94.3Zm0-139.12a44.89 44.89 0 0 0-44.83 44.85c0 28.4 23.61 70.3 44.83 70.3 21.21 0 44.83-41.9 44.83-70.3a44.88 44.88 0 0 0-44.83-44.85Zm0 0"/>
  <path d="M676.05 802.17H507.44a12 12 0 0 1-12-11.99v-181.8c0-53.13 43.2-96.34 96.31-96.34s96.31 43.21 96.31 96.34v181.8a12 12 0 0 1-12 12Zm-156.62-23.99h144.65v-169.8c0-39.88-32.44-72.35-72.33-72.35-39.88 0-72.32 32.45-72.32 72.35Zm0 0"/>
  <path d="M223.76 503.64c-39.27 0-68.81-57.2-68.81-94.29 0-37.95 30.87-68.83 68.8-68.83 37.95 0 68.82 30.88 68.82 68.83 0 37.1-29.55 94.3-68.81 94.3Zm0-139.12a44.89 44.89 0 0 0-44.83 44.85c0 28.4 23.61 70.3 44.83 70.3 21.21 0 44.83-41.9 44.83-70.3a44.88 44.88 0 0 0-44.83-44.85Zm0 0"/>
  <path d="M307.2 802.17H138.56a12 12 0 0 1-11.99-11.99v-181.8c0-53.13 43.2-96.34 96.3-96.34 53.12 0 96.32 43.21 96.32 96.34v181.8a12 12 0 0 1-12 12Zm-156.65-23.99h144.66v-169.8c0-39.88-32.44-72.35-72.33-72.35-39.87 0-72.33 32.45-72.33 72.35Zm0 0"/>
  <path d="M407.3 247.02a12 12 0 0 1-10.38-6l-30.06-52.07h-62.97a53.35 53.35 0 0 1-53.29-53.29V67.93a53.38 53.38 0 0 1 53.3-53.3h206.83a53.35 53.35 0 0 1 53.29 53.3v67.73c0 29.4-23.9 53.29-53.29 53.29h-62.97l-30.06 52.07a12 12 0 0 1-10.4 6ZM303.9 38.62a29.35 29.35 0 0 0-29.3 29.31v67.73a29.34 29.34 0 0 0 29.3 29.3h69.89c4.28 0 8.23 2.29 10.37 6l23.15 40.08 23.15-40.08c2.14-3.71 6.1-6 10.38-6h69.87a29.35 29.35 0 0 0 29.31-29.3V67.93a29.35 29.35 0 0 0-29.3-29.32Zm0 0"/>
</svg>
