<svg xmlns="http://www.w3.org/2000/svg" version="1.0" viewBox="0 0 810 810" fill="#FFD1D7">
  <path d="M777 421a178 178 0 0 0-97-45c-16-3-32-6-39-15-19-27-32-64-14-86 25-29 40-68 41-109v-1c9-27 26-83-9-103-16-8-30 2-39 8l-6 4c-7 3-16 11-23 16a91 91 0 0 0-66 1l-11-14c-13-16-31-23-42-22-15 1-27 15-32 38-5 18 3 45 8 59l-1 42c0 2-3 6-6 7a824 824 0 0 1-48 6c-33 2-64 4-99 18-56 21-105 57-148 88-64 46-83 91-110 154l-3 7-7 15c-6 10-12 21-15 34-11 53 8 107 50 140 24 20 53 32 80 42 65 24 132 41 200 51 1 0 40 5 84 5s92-5 110-27c5-5 8-11 9-18 11-4 22-9 28-16 10-11 10-28 0-46-8-15-27-21-38-24l7-7c8-12 11-35-4-50a84 84 0 0 0-53-20c-13-1-49 1-82 3h-1a1720 1720 0 0 1-8-56l12-9c9-6 18-11 26-14a160 160 0 0 0 26 7c12 4 25 5 37 6 10 1 20 2 29 5 24 7 48 18 70 31 3 1 5 4 8 7l15 12c8 5 22 8 35 8 12 0 23-3 31-7 11-7 18-19 19-32 0-24-20-38-34-47l-5-3-2-2c20 3 38 10 53 24l6 5c6 7 14 15 25 19 15 7 31 5 43-5s18-26 15-42c-3-19-16-33-25-42ZM481 588c14 1 23 3 31 11l-1 4-14 1h-20c-19 2-40 7-49 10-9-2-13-4-14-5-2-3-5-9-7-18 20-1 64-4 74-3Zm284-110c-1 0-3 2-7 0-5-2-10-7-15-12l-6-6c-41-37-95-37-141-36l-1-1-27-20a18 18 0 1 0-21 28l27 20 1 1 2 2 1 1 1 1 1 1h1c21 11 42 22 61 36l6 3c5 4 18 12 18 17l-2 2c-5 3-24 3-30-1-3-1-5-4-8-7-4-3-9-8-15-11-24-15-51-27-78-35-12-4-24-5-36-6-11-1-21-2-30-5l-11-3c-6-1-11-2-18-5l-2-1h-1l-2-1h-2l-2 1h-2c-14 4-29 11-43 22l-21 14v1l-2 1a18 18 0 0 0-3 4l-1 1-1 2v3l-1 1v4l1 2v1c3 11 5 28 7 46 7 46 12 77 27 92 4 4 10 8 30 13l7 2 39 7 57 7c8 1 16 5 18 6l3 8-12 4c-8-7-20-9-30-10h-4a1350 1350 0 0 0-122-9 92 92 0 0 1-17-3h-1l-52-17c-8-6-29-21-39-26-13-7-26-10-43-15l-38-11c-10-2-18-6-26-11l-2-2h-1l-2-1h-1l-2-1h-1a17 17 0 0 0-3 0 18 18 0 0 0-15 25l1 3h1l2 2 1 1 1 1c2 2 48 33 76 47a971 971 0 0 0 146 42h1l10 2 59 3c25 2 54 3 62 5h5l11 2-1 2c-15 18-107 17-162 10-66-10-130-26-192-49-25-9-51-20-71-36-32-26-46-66-37-105 2-9 6-17 11-26l8-17 4-7c26-62 42-99 97-139 42-30 89-64 141-85 30-11 57-13 88-15l36-2c3-1 15-2 25-6 15-7 26-24 26-39l1-46-1-6c-6-17-10-36-8-42l3-9c3 1 6 3 9 7l21 25c6 6 15 8 22 4 0-1 13-8 27-8 17-1 27 5 27 5 7 5 15 4 21-1a264 264 0 0 1 40-28c2 6 2 20-10 59l-1 3-1 5c0 34-12 65-32 90-33 38-14 93 13 129 15 21 41 25 61 29l11 2c25 5 49 17 68 34 8 9 13 15 14 22 1 4-1 7-2 9Zm0 0"/>
</svg>
