<svg xmlns="http://www.w3.org/2000/svg" version="1.0" viewBox="0 0 810 810" fill="#FFD1D7">
  <path d="M705 265v-2a116 116 0 0 0-165-106 116 116 0 0 0-225-4c-20-16-44-25-71-25a116 116 0 0 0-115 135h-2a116 116 0 1 0 0 232h556a116 116 0 0 0 22-230Zm0 0"/>
  <path d="M211 541c-24 30-20 52-20 52 0 11 9 21 20 21s20-9 20-21c0 0 4-22-20-52Zm96 55c-24 30-20 53-20 53 0 11 9 21 20 21s20-9 20-21c1 1 5-23-20-53Zm93-73c-24 30-20 52-20 52 0 11 9 21 20 21s21-9 21-21c0 1 3-22-21-52Zm108 54c-24 30-21 53-21 53 0 11 9 21 21 21s21-9 21-21c-1 1 3-23-21-53Zm91-54c-24 30-21 52-21 52 0 11 9 21 21 21s21-9 21-21c0 1 3-22-21-52Zm0 0"/>
  <path d="M421 670c-24 30-20 52-20 52 0 11 9 22 20 22s21-10 21-22c-1 1 4-22-21-52Zm0 0"/>
</svg>
