<svg xmlns="http://www.w3.org/2000/svg" version="1.0" viewBox="0 0 810 810" fill="#FFD1D7">
  <path d="M550.8 427.6H438.2l41-184.3a23.3 23.3 0 0 0-4-19 23.6 23.6 0 0 0-28.5-7.8 23.7 23.7 0 0 0-9.4 7.3L200.4 531.6a23.3 23.3 0 0 0-4.5 18.6 23.5 23.5 0 0 0 23.3 19.5h112.6l-41 184.3a23.3 23.3 0 0 0 4 19 23.5 23.5 0 0 0 24.8 9 24 24 0 0 0 13.1-8.5l237-307.8a24.2 24.2 0 0 0 4.8-15.4 24.3 24.3 0 0 0-6.1-14.9 23 23 0 0 0-11-6.9 23.8 23.8 0 0 0-6.6-.9ZM360.2 660.1l24.3-109a24.6 24.6 0 0 0 0-10.5 23.7 23.7 0 0 0-23.2-18.3h-94l142.5-185.2-24.2 109a22.8 22.8 0 0 0 .8 13.1 23 23 0 0 0 9.7 12.2 23.9 23.9 0 0 0 12.6 3.6h94Zm0 0"/>
  <path d="M629.9 167.4A224 224 0 0 0 420.6 25 225.8 225.8 0 0 0 198 217a139.5 139.5 0 0 0-65.8 3.2 140.2 140.2 0 0 0-62.5 37.6A139.8 139.8 0 0 0 36 314.5a140 140 0 0 0-3 73 141 141 0 0 0 49.8 80 141 141 0 0 0 89 31.1v-47.3a93.4 93.4 0 0 1-53.2-15.7 93.6 93.6 0 0 1-38.4-51.4 99.9 99.9 0 0 1-4-32.3 92.9 92.9 0 0 1 16-48.2 92.3 92.3 0 0 1 30.4-28.7 94.7 94.7 0 0 1 68.5-11 93.6 93.6 0 0 1 21.3 7 22.9 22.9 0 0 0 13 0 24 24 0 0 0 13.8-10.1 24.2 24.2 0 0 0 3.7-12.5 178 178 0 0 1 304.7-122.7A178 178 0 0 1 592 202a23.6 23.6 0 0 0 22.6 13l2.8-.1c1.5-.2 3-.3 4.6-.3a118.7 118.7 0 0 1 116.8 106.9 118.6 118.6 0 0 1-111 129.7l-5.8.2v47.4a165.9 165.9 0 0 0 31.8-328.4 168.2 168.2 0 0 0-23.8-3Zm-505.4 426h47.3v47.3h-47.3Zm71 94.6H243v47.4h-47.4Zm379-118.3H622V617h-47.4Zm-94.7 94.7h47.4v47.3h-47.4Zm0 0"/>
</svg>
