<?xml version="1.0" standalone="no"?>
<!DOCTYPE svg PUBLIC "-//W3C//DTD SVG 20010904//EN"
 "http://www.w3.org/TR/2001/REC-SVG-20010904/DTD/svg10.dtd">
<svg version="1.0" xmlns="http://www.w3.org/2000/svg"
 width="504.000000pt" height="504.000000pt" viewBox="0 0 504.000000 504.000000"
 preserveAspectRatio="xMidYMid meet">
<metadata>
Created by potrace 1.14, written by Peter Selinger 2001-2017
</metadata>
<g transform="translate(0.000000,504.000000) scale(0.100000,-0.100000)"
fill="#000000" stroke="none">
<path d="M2064 4189 c-8 -14 1 -139 26 -344 11 -88 24 -210 29 -270 6 -61 13
-119 16 -130 8 -24 -1 -14 -103 112 -98 120 -116 110 -88 -46 10 -53 24 -118
33 -144 8 -27 12 -51 9 -54 -3 -3 -36 21 -73 54 -166 146 -236 181 -204 101
45 -111 87 -207 103 -233 15 -27 16 -34 5 -44 -11 -8 -23 -4 -53 19 -21 16
-44 30 -51 30 -6 0 -60 33 -120 73 -115 77 -437 242 -490 252 -31 5 -31 4 -19
-19 6 -13 28 -44 47 -69 40 -54 319 -332 402 -401 32 -27 57 -50 55 -51 -3 -4
-44 9 -288 86 -240 75 -361 109 -393 109 -25 0 -27 -2 -17 -20 12 -22 140
-108 295 -200 80 -47 255 -160 255 -164 0 -4 -239 15 -355 29 -160 18 -292 22
-306 8 -22 -22 43 -52 341 -157 85 -30 191 -68 235 -84 l80 -30 -55 -4 c-54
-5 -297 -35 -499 -63 -101 -14 -158 -36 -146 -55 15 -25 385 -99 500 -101 54
0 158 -15 127 -18 -7 0 -11 -5 -8 -9 2 -4 -19 -18 -47 -31 -174 -80 -296 -143
-320 -167 l-29 -27 21 -21 c20 -20 32 -21 169 -21 109 1 182 7 280 24 73 13
136 21 140 17 4 -4 -6 -19 -23 -33 -84 -69 -205 -187 -205 -199 0 -20 46 -18
133 5 39 11 83 22 97 25 14 2 41 11 60 19 29 12 37 13 47 2 10 -10 9 -16 -4
-27 -36 -30 -173 -229 -173 -252 0 -26 26 -19 131 34 54 28 101 50 103 50 7 0
-37 -98 -115 -254 -67 -135 -94 -216 -71 -216 26 0 64 22 113 66 30 26 85 74
123 108 101 89 105 92 101 58 -2 -15 -17 -76 -34 -137 -39 -138 -51 -222 -37
-263 l11 -31 39 27 c24 16 78 81 135 160 71 97 97 128 102 115 5 -16 7 -15 17
2 9 16 11 -18 7 -150 -6 -176 0 -228 27 -233 17 -3 78 113 154 292 28 67 39
84 44 70 7 -18 7 -18 11 1 3 11 17 -45 33 -125 36 -190 64 -280 84 -280 16 0
53 125 87 295 20 99 38 181 40 183 2 2 9 -16 15 -39 11 -41 45 -137 122 -349
38 -104 101 -236 128 -270 l20 -25 -4 140 c-3 77 -12 190 -20 250 -9 61 -20
162 -26 226 -5 63 -12 131 -15 150 -6 31 -5 32 7 13 44 -70 177 -216 190 -208
17 10 8 76 -33 256 -15 67 -4 77 40 35 55 -52 173 -142 204 -155 25 -11 27
-10 27 10 0 22 -58 175 -91 240 -17 34 -18 38 -2 46 19 11 100 -30 233 -118
96 -64 400 -216 449 -225 30 -5 32 -4 26 17 -4 13 -15 32 -25 43 -9 11 -32 38
-51 59 -61 72 -293 300 -359 356 -36 29 -69 58 -75 62 -5 5 17 -1 50 -12 56
-20 220 -69 482 -146 260 -76 243 -37 -67 153 -80 49 -176 111 -213 136 -38
26 -73 47 -79 47 -6 0 -9 2 -7 5 4 4 164 -8 479 -35 125 -11 190 -7 190 10 0
14 -80 52 -210 100 -63 23 -179 66 -257 96 -78 30 -147 54 -153 54 -5 0 -10 4
-10 9 0 5 28 11 63 14 34 3 105 12 157 20 52 9 154 23 227 32 193 24 255 46
201 72 -58 28 -377 93 -457 94 -73 0 -134 11 -135 24 0 6 60 40 133 77 158 80
199 104 227 132 19 19 19 22 4 38 -10 11 -40 21 -76 26 -71 9 -268 -2 -382
-21 -78 -13 -83 -13 -92 4 -8 14 -4 21 24 38 45 28 178 169 171 181 -13 21
-148 -1 -280 -44 -14 -5 -24 -1 -32 12 -9 16 -6 24 18 50 16 17 29 34 29 37 0
3 22 38 50 78 84 122 67 133 -89 57 -56 -27 -104 -50 -106 -50 -3 0 9 26 26
58 16 31 61 124 99 206 101 214 93 253 -31 154 -35 -28 -82 -69 -104 -89 -22
-21 -64 -56 -92 -79 -60 -47 -66 -40 -37 41 23 65 64 244 66 287 0 21 -4 47
-11 60 l-12 22 -37 -24 c-23 -14 -75 -76 -141 -167 -71 -99 -102 -135 -97
-114 6 29 6 29 -9 10 -15 -18 -16 -6 -14 150 2 163 -4 225 -21 225 -19 0 -60
-64 -100 -156 -69 -158 -99 -220 -99 -205 -1 10 -4 11 -14 2 -11 -8 -16 3 -25
57 -32 196 -72 342 -93 342 -8 0 -30 -43 -43 -83 -3 -10 -22 -98 -41 -194 -20
-97 -39 -182 -44 -190 -5 -9 -13 7 -25 49 -32 117 -145 419 -194 518 -37 75
-53 92 -68 69z"/>
</g>
</svg>
